<?xml version="1.0" encoding="UTF-8" standalone="no"?>
<!DOCTYPE svg PUBLIC "-//W3C//DTD SVG 1.1//EN" "http://www.w3.org/Graphics/SVG/1.1/DTD/svg11.dtd">
<svg width="100%" height="100%" viewBox="0 0 1226 377" version="1.1" xmlns="http://www.w3.org/2000/svg" xmlns:xlink="http://www.w3.org/1999/xlink" xml:space="preserve" xmlns:serif="http://www.serif.com/" style="fill-rule:evenodd;clip-rule:evenodd;stroke-linejoin:round;stroke-miterlimit:2;">
    <g transform="matrix(1,0,0,1,-2914.2,240)">
        <g transform="matrix(1.19721,0,0,1.03924,1148.08,-362.207)">
            <rect x="1478" y="119.517" width="1018" height="357.954" style="fill:white;"/>
        </g>
        <g transform="matrix(0.852941,0,0,0.381313,2099.49,-562.128)">
            <rect x="1164" y="1008" width="408" height="36" style="fill:rgb(255,129,129);"/>
        </g>
        <g transform="matrix(0.852941,0,0,0.381313,2099.49,-405.128)">
            <rect x="1164" y="1008" width="408" height="36" style="fill:rgb(255,200,126);"/>
        </g>
        <g transform="matrix(0.852941,0,0,0.381313,2448.51,-562.128)">
            <rect x="1164" y="1008" width="408" height="36" style="fill:rgb(255,129,129);"/>
        </g>
        <g transform="matrix(0.852941,0,0,0.57197,2794.46,-754.31)">
            <rect x="1164" y="1008" width="408" height="36" style="fill:rgb(255,0,0);"/>
        </g>
        <g transform="matrix(0.852941,0,0,0.381313,2794.46,-405.128)">
            <rect x="1164" y="1008" width="408" height="36" style="fill:rgb(255,0,0);"/>
        </g>
        <g transform="matrix(0.852941,0,0,0.381313,2448.51,-405.128)">
            <rect x="1164" y="1008" width="408" height="36" style="fill:rgb(255,0,0);"/>
        </g>
        <g transform="matrix(0.852941,0,0,0.381313,2099.49,-520.947)">
            <rect x="1164" y="1008" width="408" height="36" style="fill:rgb(255,200,126);"/>
        </g>
        <g transform="matrix(0.852941,0,0,0.381313,2099.49,-363.947)">
            <rect x="1164" y="1008" width="408" height="36" style="fill:rgb(255,251,130);"/>
        </g>
        <g transform="matrix(0.852941,0,0,0.514854,2448.51,-660.363)">
            <rect x="1164" y="1008" width="408" height="36" style="fill:rgb(255,200,126);"/>
        </g>
        <g transform="matrix(0.852941,0,0,0.514854,2794.46,-660.363)">
            <rect x="1164" y="1008" width="408" height="36" style="fill:rgb(255,151,2);"/>
        </g>
        <g transform="matrix(0.852941,0,0,0.381313,2795.49,-363.947)">
            <rect x="1164" y="1008" width="408" height="36" style="fill:rgb(255,248,0);"/>
        </g>
        <g transform="matrix(0.852941,0,0,0.381313,2447.49,-363.947)">
            <rect x="1164" y="1008" width="408" height="36" style="fill:rgb(255,251,130);"/>
        </g>
        <g transform="matrix(0.852941,0,0,0.381313,2099.49,-479.765)">
            <rect x="1164" y="1008" width="408" height="36" style="fill:rgb(255,251,130);"/>
        </g>
        <g transform="matrix(0.852941,0,0,0.381313,2099.49,-322.765)">
            <rect x="1164" y="1008" width="408" height="36" style="fill:rgb(162,255,125);"/>
        </g>
        <g transform="matrix(0.852941,0,0,0.390374,2448.51,-489.605)">
            <rect x="1164" y="1008" width="408" height="36" style="fill:rgb(74,255,0);"/>
        </g>
        <g transform="matrix(0.852941,0,0,0.381313,2794.46,-479.765)">
            <rect x="1164" y="1008" width="408" height="36" style="fill:rgb(74,255,0);"/>
        </g>
        <g transform="matrix(0.852941,0,0,0.381313,2795.49,-322.765)">
            <rect x="1164" y="1008" width="408" height="36" style="fill:rgb(0,255,205);"/>
        </g>
        <g transform="matrix(0.852941,0,0,0.381313,2447.49,-322.765)">
            <rect x="1164" y="1008" width="408" height="36" style="fill:rgb(162,255,125);"/>
        </g>
        <g transform="matrix(0.852941,0,0,0.381313,2099.49,-438.583)">
            <rect x="1164" y="1008" width="408" height="36" style="fill:rgb(162,255,125);"/>
        </g>
        <g transform="matrix(0.852941,0,0,0.381313,2099.49,-281.583)">
            <rect x="1164" y="1008" width="408" height="36" style="fill:rgb(128,255,230);"/>
        </g>
        <g transform="matrix(0.857944,0,0,0.381313,2441.66,-438.583)">
            <rect x="1164" y="1008" width="408" height="36" style="fill:rgb(112,1,254);"/>
        </g>
        <g transform="matrix(0.852941,0,0,0.381313,2794.46,-438.583)">
            <rect x="1164" y="1008" width="408" height="36" style="fill:rgb(112,1,254);"/>
        </g>
        <g transform="matrix(0.852941,0,0,0.381313,2795.49,-281.583)">
            <rect x="1164" y="1008" width="408" height="36" style="fill:rgb(112,1,254);"/>
        </g>
        <g transform="matrix(0.857944,0,0,0.381313,2441.66,-281.583)">
            <rect x="1164" y="1008" width="408" height="36" style="fill:rgb(112,1,254);"/>
        </g>
        <g transform="matrix(0.852941,0,0,0.381313,2099.49,-548.401)">
            <rect x="1164" y="1008" width="408" height="36" style="fill:rgb(255,0,0);"/>
        </g>
        <g transform="matrix(0.852941,0,0,0.381313,2099.49,-391.401)">
            <rect x="1164" y="1008" width="408" height="36" style="fill:rgb(255,251,130);"/>
        </g>
        <g transform="matrix(0.852941,0,0,0.381313,2448.51,-548.401)">
            <rect x="1164" y="1008" width="408" height="36" style="fill:rgb(255,0,0);"/>
        </g>
        <g transform="matrix(0.852941,0,0,0.381313,2794.46,-548.401)">
            <rect x="1164" y="1008" width="408" height="36" style="fill:rgb(255,0,0);"/>
        </g>
        <g transform="matrix(0.857944,0,0,0.381313,2787.62,-391.401)">
            <rect x="1164" y="1008" width="408" height="36" style="fill:rgb(255,151,2);"/>
        </g>
        <g transform="matrix(0.852941,0,0,0.381313,2448.51,-391.401)">
            <rect x="1164" y="1008" width="408" height="36" style="fill:rgb(255,151,2);"/>
        </g>
        <g transform="matrix(0.852941,0,0,0.381313,2099.49,-507.219)">
            <rect x="1164" y="1008" width="408" height="36" style="fill:rgb(255,151,2);"/>
        </g>
        <g transform="matrix(0.852941,0,0,0.381313,2099.49,-350.219)">
            <rect x="1164" y="1008" width="408" height="36" style="fill:rgb(162,255,125);"/>
        </g>
        <g transform="matrix(0.852941,0,0,0.381313,2448.51,-507.219)">
            <rect x="1164" y="1008" width="408" height="36" style="fill:rgb(255,151,2);"/>
        </g>
        <g transform="matrix(0.852941,0,0,0.381313,2794.46,-507.219)">
            <rect x="1164" y="1008" width="408" height="36" style="fill:rgb(255,248,0);"/>
        </g>
        <g transform="matrix(0.852941,0,0,0.381313,2795.49,-350.219)">
            <rect x="1164" y="1008" width="408" height="36" style="fill:rgb(74,255,0);"/>
        </g>
        <g transform="matrix(0.852941,0,0,0.381313,2447.49,-350.219)">
            <rect x="1164" y="1008" width="408" height="36" style="fill:rgb(162,255,125);"/>
        </g>
        <g transform="matrix(0.852941,0,0,0.381313,2099.49,-466.037)">
            <rect x="1164" y="1008" width="408" height="36" style="fill:rgb(255,248,0);"/>
        </g>
        <g transform="matrix(0.852941,0,0,0.381313,2099.49,-309.037)">
            <rect x="1164" y="1008" width="408" height="36" style="fill:rgb(128,255,230);"/>
        </g>
        <g transform="matrix(0.852941,0,0,0.390374,2448.51,-475.552)">
            <rect x="1164" y="1008" width="408" height="36" style="fill:rgb(0,255,205);"/>
        </g>
        <g transform="matrix(0.852941,0,0,0.381313,2794.46,-466.037)">
            <rect x="1164" y="1008" width="408" height="36" style="fill:rgb(0,255,205);"/>
        </g>
        <g transform="matrix(0.852941,0,0,0.381313,2795.49,-309.037)">
            <rect x="1164" y="1008" width="408" height="36" style="fill:rgb(0,255,205);"/>
        </g>
        <g transform="matrix(0.852941,0,0,0.381313,2447.49,-309.037)">
            <rect x="1164" y="1008" width="408" height="36" style="fill:rgb(0,255,205);"/>
        </g>
        <g transform="matrix(0.852941,0,0,0.381313,2099.49,-424.856)">
            <rect x="1164" y="1008" width="408" height="36" style="fill:rgb(74,255,0);"/>
        </g>
        <g transform="matrix(0.852941,0,0,0.381313,2099.49,-267.856)">
            <rect x="1164" y="1008" width="408" height="36" style="fill:rgb(125,194,255);"/>
        </g>
        <g transform="matrix(0.857944,0,0,0.381313,2441.66,-424.856)">
            <rect x="1164" y="1008" width="408" height="36" style="fill:rgb(200,0,255);"/>
        </g>
        <g transform="matrix(0.852941,0,0,0.381313,2794.46,-424.856)">
            <rect x="1164" y="1008" width="408" height="36" style="fill:rgb(200,0,255);"/>
        </g>
        <g transform="matrix(0.852941,0,0,0.381313,2795.49,-267.856)">
            <rect x="1164" y="1008" width="408" height="36" style="fill:rgb(200,0,255);"/>
        </g>
        <g transform="matrix(0.857944,0,0,0.381313,2441.66,-267.856)">
            <rect x="1164" y="1008" width="408" height="36" style="fill:rgb(200,0,255);"/>
        </g>
        <g transform="matrix(0.852941,0,0,0.381313,2099.49,-534.674)">
            <rect x="1164" y="1008" width="408" height="36" style="fill:rgb(255,129,129);"/>
        </g>
        <g transform="matrix(0.852941,0,0,0.381313,2099.49,-377.674)">
            <rect x="1164" y="1008" width="408" height="36" style="fill:rgb(255,248,0);"/>
        </g>
        <g transform="matrix(0.852941,0,0,0.381313,2448.51,-534.674)">
            <rect x="1164" y="1008" width="408" height="36" style="fill:rgb(255,129,129);"/>
        </g>
        <g transform="matrix(0.852941,0,0,0.381313,2794.46,-534.674)">
            <rect x="1164" y="1008" width="408" height="36" style="fill:rgb(255,151,2);"/>
        </g>
        <g transform="matrix(0.852941,0,0,0.381313,2795.49,-377.674)">
            <rect x="1164" y="1008" width="408" height="36" style="fill:rgb(255,248,0);"/>
        </g>
        <g transform="matrix(0.852941,0,0,0.381313,2448.51,-377.674)">
            <rect x="1164" y="1008" width="408" height="36" style="fill:rgb(255,248,0);"/>
        </g>
        <g transform="matrix(0.852941,0,0,0.381313,2099.49,-493.492)">
            <rect x="1164" y="1008" width="408" height="36" style="fill:rgb(255,200,126);"/>
        </g>
        <g transform="matrix(0.852941,0,0,0.381313,2099.49,-336.492)">
            <rect x="1164" y="1008" width="408" height="36" style="fill:rgb(74,255,0);"/>
        </g>
        <g transform="matrix(0.852941,0,0,0.381313,2448.51,-493.492)">
            <rect x="1164" y="1008" width="408" height="36" style="fill:rgb(255,248,0);"/>
        </g>
        <g transform="matrix(0.852941,0,0,0.381313,2794.46,-493.492)">
            <rect x="1164" y="1008" width="408" height="36" style="fill:rgb(255,248,0);"/>
        </g>
        <g transform="matrix(0.852941,0,0,0.381313,2795.49,-336.492)">
            <rect x="1164" y="1008" width="408" height="36" style="fill:rgb(74,255,0);"/>
        </g>
        <g transform="matrix(0.852941,0,0,0.381313,2447.49,-336.492)">
            <rect x="1164" y="1008" width="408" height="36" style="fill:rgb(74,255,0);"/>
        </g>
        <g transform="matrix(0.852941,0,0,0.381313,2099.49,-452.31)">
            <rect x="1164" y="1008" width="408" height="36" style="fill:rgb(255,251,130);"/>
        </g>
        <g transform="matrix(0.852941,0,0,0.381313,2099.49,-295.31)">
            <rect x="1164" y="1008" width="408" height="36" style="fill:rgb(0,255,205);"/>
        </g>
        <g transform="matrix(0.857944,0,0,0.381313,2441.66,-452.31)">
            <rect x="1164" y="1008" width="408" height="36" style="fill:rgb(0,136,255);"/>
        </g>
        <g transform="matrix(0.852941,0,0,0.381313,2794.46,-452.31)">
            <rect x="1164" y="1008" width="408" height="36" style="fill:rgb(0,136,255);"/>
        </g>
        <g transform="matrix(10.3115,0,0,1,-11929,-320.765)">
            <rect x="1440" y="294" width="118" height="6" style="fill:rgb(255,200,126);"/>
            <rect x="1440" y="294" width="118" height="6"/>
        </g>
        <g transform="matrix(10.3284,0,0,1,-11954.1,-477.765)">
            <rect x="1440" y="294" width="118" height="6" style="fill:rgb(255,200,126);"/>
            <rect x="1440" y="294" width="118" height="6"/>
        </g>
        <g transform="matrix(10.3844,0,0,1,-12039.3,-163.75)">
            <rect x="1440" y="294" width="118" height="6" style="fill:rgb(255,200,126);"/>
            <rect x="1440" y="294" width="118" height="6"/>
        </g>
        <g transform="matrix(10.3844,0,0,1,-12039.3,-534)">
            <rect x="1440" y="294" width="118" height="6" style="fill:rgb(255,200,126);"/>
            <rect x="1440" y="294" width="118" height="6"/>
        </g>
        <g transform="matrix(0.852941,0,0,0.381313,2795.49,-295.31)">
            <rect x="1164" y="1008" width="408" height="36" style="fill:rgb(0,136,255);"/>
        </g>
        <g transform="matrix(0.857944,0,0,0.381313,2441.66,-295.31)">
            <rect x="1164" y="1008" width="408" height="36" style="fill:rgb(0,136,255);"/>
        </g>
        <g transform="matrix(1,0,0,1,1739.76,-326.464)">
            <g transform="matrix(40.9602,0,0,41.2089,1452,132)">
                <path d="M0.09,-0L0.09,-0.73L0.21,-0.73L0.433,-0.105C0.432,-0.122 0.43,-0.142 0.429,-0.167C0.427,-0.191 0.426,-0.217 0.425,-0.244C0.424,-0.271 0.423,-0.296 0.423,-0.32L0.423,-0.73L0.51,-0.73L0.51,-0L0.39,-0L0.168,-0.625C0.169,-0.609 0.171,-0.589 0.172,-0.565C0.173,-0.54 0.175,-0.515 0.176,-0.488C0.177,-0.46 0.177,-0.435 0.177,-0.41L0.177,-0L0.09,-0Z" style="fill-rule:nonzero;"/>
            </g>
            <g transform="matrix(40.9602,0,0,41.2089,1476.58,132)">
                <path d="M0.3,0.008C0.234,0.008 0.182,-0.011 0.143,-0.05C0.103,-0.089 0.084,-0.143 0.084,-0.212L0.084,-0.338C0.084,-0.408 0.103,-0.462 0.142,-0.501C0.181,-0.539 0.233,-0.558 0.3,-0.558C0.367,-0.558 0.419,-0.539 0.458,-0.501C0.497,-0.462 0.516,-0.408 0.516,-0.338L0.516,-0.212C0.516,-0.143 0.497,-0.089 0.458,-0.05C0.419,-0.011 0.366,0.008 0.3,0.008ZM0.3,-0.072C0.339,-0.072 0.37,-0.083 0.393,-0.105C0.415,-0.127 0.426,-0.159 0.426,-0.202L0.426,-0.348C0.426,-0.391 0.415,-0.423 0.393,-0.445C0.37,-0.467 0.339,-0.478 0.3,-0.478C0.261,-0.478 0.231,-0.467 0.208,-0.445C0.185,-0.423 0.174,-0.391 0.174,-0.348L0.174,-0.202C0.174,-0.159 0.185,-0.127 0.208,-0.105C0.231,-0.083 0.261,-0.072 0.3,-0.072Z" style="fill-rule:nonzero;"/>
            </g>
            <g transform="matrix(40.9602,0,0,41.2089,1501.15,132)">
                <path d="M0.112,-0L0.112,-0.55L0.202,-0.55L0.202,-0.445L0.204,-0.445C0.209,-0.48 0.224,-0.508 0.249,-0.529C0.274,-0.55 0.308,-0.56 0.351,-0.56C0.408,-0.56 0.452,-0.543 0.484,-0.509C0.515,-0.474 0.53,-0.425 0.53,-0.362L0.53,-0.315L0.44,-0.315L0.44,-0.362C0.44,-0.442 0.401,-0.482 0.323,-0.482C0.284,-0.482 0.254,-0.471 0.233,-0.448C0.212,-0.425 0.202,-0.393 0.202,-0.35L0.202,-0L0.112,-0Z" style="fill-rule:nonzero;"/>
            </g>
            <g transform="matrix(40.9602,0,0,41.2089,1525.73,132)">
                <path d="M0.06,-0L0.06,-0.55L0.138,-0.55L0.138,-0.477L0.14,-0.477C0.143,-0.502 0.153,-0.522 0.17,-0.537C0.186,-0.552 0.207,-0.56 0.232,-0.56C0.256,-0.56 0.276,-0.553 0.293,-0.539C0.31,-0.525 0.322,-0.506 0.329,-0.482L0.33,-0.482C0.335,-0.506 0.345,-0.525 0.362,-0.539C0.378,-0.553 0.399,-0.56 0.424,-0.56C0.459,-0.56 0.488,-0.547 0.509,-0.521C0.53,-0.494 0.54,-0.46 0.54,-0.418L0.54,-0L0.456,-0L0.456,-0.419C0.456,-0.441 0.451,-0.459 0.44,-0.472C0.429,-0.485 0.415,-0.491 0.396,-0.491C0.378,-0.491 0.364,-0.485 0.353,-0.472C0.342,-0.459 0.337,-0.442 0.337,-0.42L0.337,-0L0.263,-0L0.263,-0.419C0.263,-0.441 0.258,-0.459 0.247,-0.472C0.236,-0.485 0.222,-0.491 0.204,-0.491C0.185,-0.491 0.171,-0.485 0.16,-0.472C0.149,-0.459 0.144,-0.442 0.144,-0.42L0.144,-0L0.06,-0Z" style="fill-rule:nonzero;"/>
            </g>
            <g transform="matrix(40.9602,0,0,41.2089,1550.3,132)">
                <path d="M0.252,0.01C0.195,0.01 0.15,-0.006 0.117,-0.038C0.084,-0.069 0.067,-0.111 0.067,-0.162C0.067,-0.196 0.075,-0.226 0.09,-0.251C0.105,-0.276 0.127,-0.296 0.154,-0.311C0.181,-0.325 0.213,-0.332 0.248,-0.332L0.418,-0.332L0.418,-0.375C0.418,-0.446 0.379,-0.482 0.301,-0.482C0.266,-0.482 0.238,-0.476 0.217,-0.463C0.196,-0.45 0.184,-0.433 0.183,-0.41L0.093,-0.41C0.096,-0.453 0.117,-0.489 0.154,-0.518C0.191,-0.546 0.24,-0.56 0.301,-0.56C0.368,-0.56 0.419,-0.544 0.455,-0.512C0.49,-0.48 0.508,-0.435 0.508,-0.378L0.508,-0L0.419,-0L0.419,-0.1L0.417,-0.1C0.412,-0.066 0.395,-0.039 0.366,-0.02C0.337,0 0.299,0.01 0.252,0.01ZM0.274,-0.066C0.318,-0.066 0.353,-0.077 0.379,-0.098C0.405,-0.119 0.418,-0.148 0.418,-0.185L0.418,-0.262L0.258,-0.262C0.229,-0.262 0.205,-0.253 0.187,-0.236C0.168,-0.218 0.159,-0.194 0.159,-0.165C0.159,-0.134 0.169,-0.11 0.19,-0.093C0.21,-0.075 0.238,-0.066 0.274,-0.066Z" style="fill-rule:nonzero;"/>
            </g>
            <g transform="matrix(40.9602,0,0,41.2089,1574.88,132)">
                <path d="M0.38,-0C0.331,-0 0.293,-0.014 0.264,-0.043C0.235,-0.071 0.22,-0.108 0.22,-0.155L0.22,-0.648L0.03,-0.648L0.03,-0.73L0.31,-0.73L0.31,-0.155C0.31,-0.132 0.316,-0.115 0.329,-0.102C0.342,-0.089 0.359,-0.082 0.38,-0.082L0.55,-0.082L0.55,-0L0.38,-0Z" style="fill-rule:nonzero;"/>
            </g>
        </g>
        <g transform="matrix(1,0,0,1,1508.21,-210.404)">
            <g transform="matrix(40.9602,0,0,41.2089,1452,132)">
                <path d="M0.13,-0L0.13,-0.73L0.22,-0.73L0.22,-0.082L0.55,-0.082L0.55,-0L0.13,-0Z" style="fill-rule:nonzero;"/>
            </g>
            <g transform="matrix(40.9602,0,0,41.2089,1476.58,132)">
                <path d="M0.3,0.01C0.235,0.01 0.183,-0.01 0.144,-0.049C0.104,-0.088 0.084,-0.141 0.084,-0.21L0.084,-0.34C0.084,-0.409 0.104,-0.463 0.144,-0.502C0.183,-0.541 0.235,-0.56 0.3,-0.56C0.343,-0.56 0.381,-0.551 0.414,-0.534C0.446,-0.517 0.471,-0.492 0.489,-0.461C0.507,-0.43 0.516,-0.393 0.516,-0.35L0.516,-0.252L0.172,-0.252L0.172,-0.2C0.172,-0.159 0.184,-0.127 0.207,-0.104C0.23,-0.08 0.261,-0.068 0.3,-0.068C0.333,-0.068 0.361,-0.075 0.383,-0.088C0.404,-0.1 0.417,-0.118 0.422,-0.14L0.512,-0.14C0.506,-0.094 0.484,-0.058 0.445,-0.031C0.406,-0.003 0.358,0.01 0.3,0.01ZM0.172,-0.322L0.428,-0.322L0.428,-0.35C0.428,-0.393 0.417,-0.427 0.395,-0.451C0.372,-0.474 0.341,-0.486 0.3,-0.486C0.259,-0.486 0.228,-0.474 0.206,-0.451C0.183,-0.427 0.172,-0.393 0.172,-0.35L0.172,-0.322Z" style="fill-rule:nonzero;"/>
            </g>
            <g transform="matrix(40.9602,0,0,41.2089,1501.15,132)">
                <path d="M0.215,-0L0.215,-0.393L0.055,-0.393L0.055,-0.475L0.215,-0.475L0.215,-0.59C0.215,-0.633 0.229,-0.668 0.256,-0.693C0.283,-0.717 0.321,-0.73 0.369,-0.73L0.53,-0.73L0.53,-0.648L0.369,-0.648C0.326,-0.648 0.305,-0.629 0.305,-0.59L0.305,-0.475L0.53,-0.475L0.53,-0.393L0.305,-0.393L0.305,-0L0.215,-0Z" style="fill-rule:nonzero;"/>
            </g>
            <g transform="matrix(40.9602,0,0,41.2089,1525.73,132)">
                <path d="M0.355,-0C0.31,-0 0.273,-0.013 0.246,-0.04C0.219,-0.066 0.205,-0.101 0.205,-0.145L0.205,-0.468L0.047,-0.468L0.047,-0.55L0.205,-0.55L0.205,-0.705L0.295,-0.705L0.295,-0.55L0.52,-0.55L0.52,-0.468L0.295,-0.468L0.295,-0.145C0.295,-0.126 0.301,-0.111 0.312,-0.1C0.323,-0.088 0.337,-0.082 0.355,-0.082L0.515,-0.082L0.515,-0L0.355,-0Z" style="fill-rule:nonzero;"/>
            </g>
        </g>
        <g transform="matrix(1,0,0,1,1484.9,-65.4552)">
            <g transform="matrix(40.9602,0,0,41.2089,1452,132)">
                <path d="M0.308,0.01C0.241,0.01 0.189,-0.009 0.15,-0.046C0.111,-0.083 0.092,-0.135 0.092,-0.2L0.092,-0.53C0.092,-0.595 0.111,-0.647 0.15,-0.684C0.189,-0.721 0.241,-0.74 0.308,-0.74C0.373,-0.74 0.425,-0.721 0.464,-0.684C0.503,-0.646 0.522,-0.595 0.522,-0.53L0.432,-0.53C0.432,-0.571 0.421,-0.603 0.4,-0.626C0.378,-0.648 0.347,-0.659 0.308,-0.659C0.269,-0.659 0.238,-0.648 0.216,-0.626C0.193,-0.603 0.182,-0.571 0.182,-0.53L0.182,-0.2C0.182,-0.159 0.193,-0.127 0.216,-0.105C0.238,-0.082 0.269,-0.071 0.308,-0.071C0.347,-0.071 0.378,-0.082 0.4,-0.105C0.421,-0.127 0.432,-0.159 0.432,-0.2L0.522,-0.2C0.522,-0.135 0.503,-0.084 0.464,-0.047C0.425,-0.009 0.373,0.01 0.308,0.01Z" style="fill-rule:nonzero;"/>
            </g>
            <g transform="matrix(40.9602,0,0,41.2089,1476.58,132)">
                <path d="M0.3,0.01C0.235,0.01 0.183,-0.01 0.144,-0.049C0.104,-0.088 0.084,-0.141 0.084,-0.21L0.084,-0.34C0.084,-0.409 0.104,-0.463 0.144,-0.502C0.183,-0.541 0.235,-0.56 0.3,-0.56C0.343,-0.56 0.381,-0.551 0.414,-0.534C0.446,-0.517 0.471,-0.492 0.489,-0.461C0.507,-0.43 0.516,-0.393 0.516,-0.35L0.516,-0.252L0.172,-0.252L0.172,-0.2C0.172,-0.159 0.184,-0.127 0.207,-0.104C0.23,-0.08 0.261,-0.068 0.3,-0.068C0.333,-0.068 0.361,-0.075 0.383,-0.088C0.404,-0.1 0.417,-0.118 0.422,-0.14L0.512,-0.14C0.506,-0.094 0.484,-0.058 0.445,-0.031C0.406,-0.003 0.358,0.01 0.3,0.01ZM0.172,-0.322L0.428,-0.322L0.428,-0.35C0.428,-0.393 0.417,-0.427 0.395,-0.451C0.372,-0.474 0.341,-0.486 0.3,-0.486C0.259,-0.486 0.228,-0.474 0.206,-0.451C0.183,-0.427 0.172,-0.393 0.172,-0.35L0.172,-0.322Z" style="fill-rule:nonzero;"/>
            </g>
            <g transform="matrix(40.9602,0,0,41.2089,1501.15,132)">
                <path d="M0.092,-0L0.092,-0.55L0.182,-0.55L0.182,-0.445L0.183,-0.445C0.188,-0.482 0.203,-0.51 0.228,-0.53C0.253,-0.55 0.287,-0.56 0.329,-0.56C0.384,-0.56 0.428,-0.543 0.461,-0.509C0.494,-0.475 0.51,-0.429 0.51,-0.37L0.51,-0L0.42,-0L0.42,-0.354C0.42,-0.396 0.409,-0.428 0.389,-0.451C0.368,-0.473 0.339,-0.484 0.303,-0.484C0.266,-0.484 0.236,-0.472 0.215,-0.449C0.193,-0.426 0.182,-0.393 0.182,-0.35L0.182,-0L0.092,-0Z" style="fill-rule:nonzero;"/>
            </g>
            <g transform="matrix(40.9602,0,0,41.2089,1525.73,132)">
                <path d="M0.355,-0C0.31,-0 0.273,-0.013 0.246,-0.04C0.219,-0.066 0.205,-0.101 0.205,-0.145L0.205,-0.468L0.047,-0.468L0.047,-0.55L0.205,-0.55L0.205,-0.705L0.295,-0.705L0.295,-0.55L0.52,-0.55L0.52,-0.468L0.295,-0.468L0.295,-0.145C0.295,-0.126 0.301,-0.111 0.312,-0.1C0.323,-0.088 0.337,-0.082 0.355,-0.082L0.515,-0.082L0.515,-0L0.355,-0Z" style="fill-rule:nonzero;"/>
            </g>
            <g transform="matrix(40.9602,0,0,41.2089,1550.3,132)">
                <path d="M0.3,0.01C0.235,0.01 0.183,-0.01 0.144,-0.049C0.104,-0.088 0.084,-0.141 0.084,-0.21L0.084,-0.34C0.084,-0.409 0.104,-0.463 0.144,-0.502C0.183,-0.541 0.235,-0.56 0.3,-0.56C0.343,-0.56 0.381,-0.551 0.414,-0.534C0.446,-0.517 0.471,-0.492 0.489,-0.461C0.507,-0.43 0.516,-0.393 0.516,-0.35L0.516,-0.252L0.172,-0.252L0.172,-0.2C0.172,-0.159 0.184,-0.127 0.207,-0.104C0.23,-0.08 0.261,-0.068 0.3,-0.068C0.333,-0.068 0.361,-0.075 0.383,-0.088C0.404,-0.1 0.417,-0.118 0.422,-0.14L0.512,-0.14C0.506,-0.094 0.484,-0.058 0.445,-0.031C0.406,-0.003 0.358,0.01 0.3,0.01ZM0.172,-0.322L0.428,-0.322L0.428,-0.35C0.428,-0.393 0.417,-0.427 0.395,-0.451C0.372,-0.474 0.341,-0.486 0.3,-0.486C0.259,-0.486 0.228,-0.474 0.206,-0.451C0.183,-0.427 0.172,-0.393 0.172,-0.35L0.172,-0.322Z" style="fill-rule:nonzero;"/>
            </g>
            <g transform="matrix(40.9602,0,0,41.2089,1574.88,132)">
                <path d="M0.112,-0L0.112,-0.55L0.202,-0.55L0.202,-0.445L0.204,-0.445C0.209,-0.48 0.224,-0.508 0.249,-0.529C0.274,-0.55 0.308,-0.56 0.351,-0.56C0.408,-0.56 0.452,-0.543 0.484,-0.509C0.515,-0.474 0.53,-0.425 0.53,-0.362L0.53,-0.315L0.44,-0.315L0.44,-0.362C0.44,-0.442 0.401,-0.482 0.323,-0.482C0.284,-0.482 0.254,-0.471 0.233,-0.448C0.212,-0.425 0.202,-0.393 0.202,-0.35L0.202,-0L0.112,-0Z" style="fill-rule:nonzero;"/>
            </g>
        </g>
        <g transform="matrix(1,0,0,1,2003.5,-326.464)">
            <g transform="matrix(40.9602,0,0,41.2089,1452,132)">
                <path d="M0.304,0.01C0.237,0.01 0.185,-0.009 0.146,-0.046C0.107,-0.083 0.088,-0.135 0.088,-0.2L0.088,-0.53C0.088,-0.595 0.107,-0.647 0.146,-0.684C0.185,-0.721 0.237,-0.74 0.304,-0.74C0.369,-0.74 0.421,-0.721 0.46,-0.684C0.499,-0.646 0.518,-0.595 0.518,-0.53L0.428,-0.53C0.428,-0.571 0.417,-0.603 0.396,-0.626C0.374,-0.648 0.343,-0.659 0.304,-0.659C0.265,-0.659 0.234,-0.648 0.212,-0.626C0.189,-0.604 0.178,-0.572 0.178,-0.531L0.178,-0.2C0.178,-0.159 0.189,-0.127 0.212,-0.104C0.234,-0.081 0.265,-0.07 0.304,-0.07C0.343,-0.07 0.374,-0.081 0.396,-0.104C0.417,-0.127 0.428,-0.159 0.428,-0.2L0.428,-0.3L0.28,-0.3L0.28,-0.382L0.518,-0.382L0.518,-0.2C0.518,-0.135 0.499,-0.084 0.46,-0.047C0.421,-0.009 0.369,0.01 0.304,0.01Z" style="fill-rule:nonzero;"/>
            </g>
            <g transform="matrix(40.9602,0,0,41.2089,1476.58,132)">
                <path d="M0.112,-0L0.112,-0.55L0.202,-0.55L0.202,-0.445L0.204,-0.445C0.209,-0.48 0.224,-0.508 0.249,-0.529C0.274,-0.55 0.308,-0.56 0.351,-0.56C0.408,-0.56 0.452,-0.543 0.484,-0.509C0.515,-0.474 0.53,-0.425 0.53,-0.362L0.53,-0.315L0.44,-0.315L0.44,-0.362C0.44,-0.442 0.401,-0.482 0.323,-0.482C0.284,-0.482 0.254,-0.471 0.233,-0.448C0.212,-0.425 0.202,-0.393 0.202,-0.35L0.202,-0L0.112,-0Z" style="fill-rule:nonzero;"/>
            </g>
            <g transform="matrix(40.9602,0,0,41.2089,1501.15,132)">
                <path d="M0.3,0.01C0.235,0.01 0.183,-0.01 0.144,-0.049C0.104,-0.088 0.084,-0.141 0.084,-0.21L0.084,-0.34C0.084,-0.409 0.104,-0.463 0.144,-0.502C0.183,-0.541 0.235,-0.56 0.3,-0.56C0.343,-0.56 0.381,-0.551 0.414,-0.534C0.446,-0.517 0.471,-0.492 0.489,-0.461C0.507,-0.43 0.516,-0.393 0.516,-0.35L0.516,-0.252L0.172,-0.252L0.172,-0.2C0.172,-0.159 0.184,-0.127 0.207,-0.104C0.23,-0.08 0.261,-0.068 0.3,-0.068C0.333,-0.068 0.361,-0.075 0.383,-0.088C0.404,-0.1 0.417,-0.118 0.422,-0.14L0.512,-0.14C0.506,-0.094 0.484,-0.058 0.445,-0.031C0.406,-0.003 0.358,0.01 0.3,0.01ZM0.172,-0.322L0.428,-0.322L0.428,-0.35C0.428,-0.393 0.417,-0.427 0.395,-0.451C0.372,-0.474 0.341,-0.486 0.3,-0.486C0.259,-0.486 0.228,-0.474 0.206,-0.451C0.183,-0.427 0.172,-0.393 0.172,-0.35L0.172,-0.322Z" style="fill-rule:nonzero;"/>
            </g>
            <g transform="matrix(40.9602,0,0,41.2089,1525.73,132)">
                <path d="M0.3,0.01C0.235,0.01 0.183,-0.01 0.144,-0.049C0.104,-0.088 0.084,-0.141 0.084,-0.21L0.084,-0.34C0.084,-0.409 0.104,-0.463 0.144,-0.502C0.183,-0.541 0.235,-0.56 0.3,-0.56C0.343,-0.56 0.381,-0.551 0.414,-0.534C0.446,-0.517 0.471,-0.492 0.489,-0.461C0.507,-0.43 0.516,-0.393 0.516,-0.35L0.516,-0.252L0.172,-0.252L0.172,-0.2C0.172,-0.159 0.184,-0.127 0.207,-0.104C0.23,-0.08 0.261,-0.068 0.3,-0.068C0.333,-0.068 0.361,-0.075 0.383,-0.088C0.404,-0.1 0.417,-0.118 0.422,-0.14L0.512,-0.14C0.506,-0.094 0.484,-0.058 0.445,-0.031C0.406,-0.003 0.358,0.01 0.3,0.01ZM0.172,-0.322L0.428,-0.322L0.428,-0.35C0.428,-0.393 0.417,-0.427 0.395,-0.451C0.372,-0.474 0.341,-0.486 0.3,-0.486C0.259,-0.486 0.228,-0.474 0.206,-0.451C0.183,-0.427 0.172,-0.393 0.172,-0.35L0.172,-0.322Z" style="fill-rule:nonzero;"/>
            </g>
            <g transform="matrix(40.9602,0,0,41.2089,1550.3,132)">
                <path d="M0.268,0.01C0.213,0.01 0.169,-0.008 0.137,-0.045C0.103,-0.082 0.087,-0.131 0.087,-0.194L0.087,-0.355C0.087,-0.418 0.103,-0.468 0.136,-0.505C0.169,-0.542 0.213,-0.56 0.268,-0.56C0.309,-0.56 0.343,-0.55 0.371,-0.529C0.398,-0.508 0.414,-0.48 0.419,-0.445L0.42,-0.445L0.418,-0.57L0.418,-0.73L0.508,-0.73L0.508,-0L0.418,-0L0.418,-0.105L0.417,-0.105C0.412,-0.069 0.397,-0.041 0.37,-0.021C0.343,-0 0.309,0.01 0.268,0.01ZM0.298,-0.068C0.335,-0.068 0.365,-0.08 0.386,-0.103C0.407,-0.126 0.418,-0.159 0.418,-0.2L0.418,-0.35C0.418,-0.391 0.407,-0.424 0.386,-0.447C0.365,-0.47 0.335,-0.482 0.298,-0.482C0.26,-0.482 0.23,-0.472 0.209,-0.453C0.188,-0.433 0.177,-0.4 0.177,-0.355L0.177,-0.195C0.177,-0.15 0.188,-0.118 0.209,-0.098C0.23,-0.078 0.26,-0.068 0.298,-0.068Z" style="fill-rule:nonzero;"/>
            </g>
            <g transform="matrix(40.9602,0,0,41.2089,1574.88,132)">
                <path d="M0.178,0.18L0.259,-0.034L0.054,-0.55L0.151,-0.55L0.281,-0.21C0.286,-0.197 0.291,-0.183 0.296,-0.168C0.301,-0.153 0.304,-0.141 0.306,-0.13C0.308,-0.141 0.311,-0.153 0.316,-0.168C0.321,-0.183 0.325,-0.197 0.33,-0.21L0.451,-0.55L0.546,-0.55L0.272,0.18L0.178,0.18Z" style="fill-rule:nonzero;"/>
            </g>
            <g transform="matrix(40.9602,0,0,41.2089,1599.46,132)">
                <rect x="0.14" y="-0.37" width="0.32" height="0.08" style="fill-rule:nonzero;"/>
            </g>
            <g transform="matrix(40.9602,0,0,41.2089,1624.03,132)">
                <path d="M0.072,-0L0.072,-0.73L0.205,-0.73L0.298,-0.414L0.395,-0.73L0.528,-0.73L0.528,-0L0.441,-0L0.441,-0.345C0.441,-0.378 0.442,-0.415 0.443,-0.458C0.444,-0.5 0.445,-0.543 0.447,-0.586C0.449,-0.629 0.451,-0.668 0.454,-0.703L0.336,-0.326L0.258,-0.326L0.145,-0.694C0.15,-0.645 0.154,-0.591 0.156,-0.532C0.158,-0.473 0.159,-0.411 0.159,-0.345L0.159,-0L0.072,-0Z" style="fill-rule:nonzero;"/>
            </g>
            <g transform="matrix(40.9602,0,0,41.2089,1648.61,132)">
                <path d="M0.085,-0L0.085,-0.082L0.28,-0.082L0.28,-0.468L0.105,-0.468L0.105,-0.55L0.37,-0.55L0.37,-0.082L0.555,-0.082L0.555,-0L0.085,-0ZM0.315,-0.649C0.293,-0.649 0.276,-0.655 0.263,-0.666C0.25,-0.677 0.244,-0.693 0.244,-0.712C0.244,-0.732 0.25,-0.748 0.263,-0.76C0.276,-0.771 0.293,-0.777 0.315,-0.777C0.337,-0.777 0.354,-0.771 0.367,-0.76C0.38,-0.748 0.386,-0.732 0.386,-0.712C0.386,-0.693 0.38,-0.677 0.367,-0.666C0.354,-0.655 0.337,-0.649 0.315,-0.649Z" style="fill-rule:nonzero;"/>
            </g>
            <g transform="matrix(40.9602,0,0,41.2089,1673.19,132)">
                <path d="M0.268,0.01C0.213,0.01 0.169,-0.008 0.137,-0.045C0.103,-0.082 0.087,-0.131 0.087,-0.194L0.087,-0.355C0.087,-0.418 0.103,-0.468 0.136,-0.505C0.169,-0.542 0.213,-0.56 0.268,-0.56C0.309,-0.56 0.343,-0.55 0.371,-0.529C0.398,-0.508 0.414,-0.48 0.419,-0.445L0.42,-0.445L0.418,-0.57L0.418,-0.73L0.508,-0.73L0.508,-0L0.418,-0L0.418,-0.105L0.417,-0.105C0.412,-0.069 0.397,-0.041 0.37,-0.021C0.343,-0 0.309,0.01 0.268,0.01ZM0.298,-0.068C0.335,-0.068 0.365,-0.08 0.386,-0.103C0.407,-0.126 0.418,-0.159 0.418,-0.2L0.418,-0.35C0.418,-0.391 0.407,-0.424 0.386,-0.447C0.365,-0.47 0.335,-0.482 0.298,-0.482C0.26,-0.482 0.23,-0.472 0.209,-0.453C0.188,-0.433 0.177,-0.4 0.177,-0.355L0.177,-0.195C0.177,-0.15 0.188,-0.118 0.209,-0.098C0.23,-0.078 0.26,-0.068 0.298,-0.068Z" style="fill-rule:nonzero;"/>
            </g>
            <g transform="matrix(40.9602,0,0,41.2089,1697.76,132)">
                <path d="M0.268,0.01C0.213,0.01 0.169,-0.008 0.137,-0.045C0.103,-0.082 0.087,-0.131 0.087,-0.194L0.087,-0.355C0.087,-0.418 0.103,-0.468 0.136,-0.505C0.169,-0.542 0.213,-0.56 0.268,-0.56C0.309,-0.56 0.343,-0.55 0.371,-0.529C0.398,-0.508 0.414,-0.48 0.419,-0.445L0.42,-0.445L0.418,-0.57L0.418,-0.73L0.508,-0.73L0.508,-0L0.418,-0L0.418,-0.105L0.417,-0.105C0.412,-0.069 0.397,-0.041 0.37,-0.021C0.343,-0 0.309,0.01 0.268,0.01ZM0.298,-0.068C0.335,-0.068 0.365,-0.08 0.386,-0.103C0.407,-0.126 0.418,-0.159 0.418,-0.2L0.418,-0.35C0.418,-0.391 0.407,-0.424 0.386,-0.447C0.365,-0.47 0.335,-0.482 0.298,-0.482C0.26,-0.482 0.23,-0.472 0.209,-0.453C0.188,-0.433 0.177,-0.4 0.177,-0.355L0.177,-0.195C0.177,-0.15 0.188,-0.118 0.209,-0.098C0.23,-0.078 0.26,-0.068 0.298,-0.068Z" style="fill-rule:nonzero;"/>
            </g>
            <g transform="matrix(40.9602,0,0,41.2089,1722.34,132)">
                <path d="M0.38,-0C0.331,-0 0.293,-0.014 0.264,-0.043C0.235,-0.071 0.22,-0.108 0.22,-0.155L0.22,-0.648L0.03,-0.648L0.03,-0.73L0.31,-0.73L0.31,-0.155C0.31,-0.132 0.316,-0.115 0.329,-0.102C0.342,-0.089 0.359,-0.082 0.38,-0.082L0.55,-0.082L0.55,-0L0.38,-0Z" style="fill-rule:nonzero;"/>
            </g>
            <g transform="matrix(40.9602,0,0,41.2089,1746.91,132)">
                <path d="M0.3,0.01C0.235,0.01 0.183,-0.01 0.144,-0.049C0.104,-0.088 0.084,-0.141 0.084,-0.21L0.084,-0.34C0.084,-0.409 0.104,-0.463 0.144,-0.502C0.183,-0.541 0.235,-0.56 0.3,-0.56C0.343,-0.56 0.381,-0.551 0.414,-0.534C0.446,-0.517 0.471,-0.492 0.489,-0.461C0.507,-0.43 0.516,-0.393 0.516,-0.35L0.516,-0.252L0.172,-0.252L0.172,-0.2C0.172,-0.159 0.184,-0.127 0.207,-0.104C0.23,-0.08 0.261,-0.068 0.3,-0.068C0.333,-0.068 0.361,-0.075 0.383,-0.088C0.404,-0.1 0.417,-0.118 0.422,-0.14L0.512,-0.14C0.506,-0.094 0.484,-0.058 0.445,-0.031C0.406,-0.003 0.358,0.01 0.3,0.01ZM0.172,-0.322L0.428,-0.322L0.428,-0.35C0.428,-0.393 0.417,-0.427 0.395,-0.451C0.372,-0.474 0.341,-0.486 0.3,-0.486C0.259,-0.486 0.228,-0.474 0.206,-0.451C0.183,-0.427 0.172,-0.393 0.172,-0.35L0.172,-0.322Z" style="fill-rule:nonzero;"/>
            </g>
        </g>
        <g transform="matrix(1,0,0,1,2374.04,-326.464)">
            <g transform="matrix(40.9602,0,0,41.2089,1452,132)">
                <path d="M0.3,0.01C0.235,0.01 0.183,-0.009 0.145,-0.047C0.107,-0.085 0.088,-0.139 0.088,-0.21L0.088,-0.52C0.088,-0.591 0.107,-0.645 0.145,-0.683C0.183,-0.721 0.235,-0.74 0.3,-0.74C0.365,-0.74 0.417,-0.721 0.455,-0.683C0.493,-0.645 0.512,-0.591 0.512,-0.521L0.512,-0.21C0.512,-0.139 0.493,-0.085 0.455,-0.047C0.417,-0.009 0.365,0.01 0.3,0.01ZM0.3,-0.071C0.339,-0.071 0.37,-0.082 0.391,-0.105C0.411,-0.127 0.422,-0.159 0.422,-0.2L0.422,-0.53C0.422,-0.571 0.411,-0.603 0.391,-0.626C0.37,-0.648 0.339,-0.659 0.3,-0.659C0.261,-0.659 0.231,-0.648 0.21,-0.626C0.189,-0.603 0.178,-0.571 0.178,-0.53L0.178,-0.2C0.178,-0.159 0.189,-0.127 0.21,-0.105C0.231,-0.082 0.261,-0.071 0.3,-0.071Z" style="fill-rule:nonzero;"/>
            </g>
            <g transform="matrix(40.9602,0,0,41.2089,1476.58,132)">
                <path d="M0.092,-0L0.092,-0.55L0.182,-0.55L0.182,-0.445L0.183,-0.445C0.188,-0.482 0.203,-0.51 0.228,-0.53C0.253,-0.55 0.287,-0.56 0.329,-0.56C0.384,-0.56 0.428,-0.543 0.461,-0.509C0.494,-0.475 0.51,-0.429 0.51,-0.37L0.51,-0L0.42,-0L0.42,-0.354C0.42,-0.396 0.409,-0.428 0.389,-0.451C0.368,-0.473 0.339,-0.484 0.303,-0.484C0.266,-0.484 0.236,-0.472 0.215,-0.449C0.193,-0.426 0.182,-0.393 0.182,-0.35L0.182,-0L0.092,-0Z" style="fill-rule:nonzero;"/>
            </g>
            <g transform="matrix(40.9602,0,0,41.2089,1501.15,132)">
                <path d="M0.38,-0C0.331,-0 0.293,-0.014 0.264,-0.043C0.235,-0.071 0.22,-0.108 0.22,-0.155L0.22,-0.648L0.03,-0.648L0.03,-0.73L0.31,-0.73L0.31,-0.155C0.31,-0.132 0.316,-0.115 0.329,-0.102C0.342,-0.089 0.359,-0.082 0.38,-0.082L0.55,-0.082L0.55,-0L0.38,-0Z" style="fill-rule:nonzero;"/>
            </g>
            <g transform="matrix(40.9602,0,0,41.2089,1525.73,132)">
                <path d="M0.178,0.18L0.259,-0.034L0.054,-0.55L0.151,-0.55L0.281,-0.21C0.286,-0.197 0.291,-0.183 0.296,-0.168C0.301,-0.153 0.304,-0.141 0.306,-0.13C0.308,-0.141 0.311,-0.153 0.316,-0.168C0.321,-0.183 0.325,-0.197 0.33,-0.21L0.451,-0.55L0.546,-0.55L0.272,0.18L0.178,0.18Z" style="fill-rule:nonzero;"/>
            </g>
            <g transform="matrix(40.9602,0,0,41.2089,1550.3,132)">
                <rect x="0.14" y="-0.37" width="0.32" height="0.08" style="fill-rule:nonzero;"/>
            </g>
            <g transform="matrix(40.9602,0,0,41.2089,1574.88,132)">
                <path d="M0.072,-0L0.072,-0.73L0.205,-0.73L0.298,-0.414L0.395,-0.73L0.528,-0.73L0.528,-0L0.441,-0L0.441,-0.345C0.441,-0.378 0.442,-0.415 0.443,-0.458C0.444,-0.5 0.445,-0.543 0.447,-0.586C0.449,-0.629 0.451,-0.668 0.454,-0.703L0.336,-0.326L0.258,-0.326L0.145,-0.694C0.15,-0.645 0.154,-0.591 0.156,-0.532C0.158,-0.473 0.159,-0.411 0.159,-0.345L0.159,-0L0.072,-0Z" style="fill-rule:nonzero;"/>
            </g>
            <g transform="matrix(40.9602,0,0,41.2089,1599.46,132)">
                <path d="M0.085,-0L0.085,-0.082L0.28,-0.082L0.28,-0.468L0.105,-0.468L0.105,-0.55L0.37,-0.55L0.37,-0.082L0.555,-0.082L0.555,-0L0.085,-0ZM0.315,-0.649C0.293,-0.649 0.276,-0.655 0.263,-0.666C0.25,-0.677 0.244,-0.693 0.244,-0.712C0.244,-0.732 0.25,-0.748 0.263,-0.76C0.276,-0.771 0.293,-0.777 0.315,-0.777C0.337,-0.777 0.354,-0.771 0.367,-0.76C0.38,-0.748 0.386,-0.732 0.386,-0.712C0.386,-0.693 0.38,-0.677 0.367,-0.666C0.354,-0.655 0.337,-0.649 0.315,-0.649Z" style="fill-rule:nonzero;"/>
            </g>
            <g transform="matrix(40.9602,0,0,41.2089,1624.03,132)">
                <path d="M0.268,0.01C0.213,0.01 0.169,-0.008 0.137,-0.045C0.103,-0.082 0.087,-0.131 0.087,-0.194L0.087,-0.355C0.087,-0.418 0.103,-0.468 0.136,-0.505C0.169,-0.542 0.213,-0.56 0.268,-0.56C0.309,-0.56 0.343,-0.55 0.371,-0.529C0.398,-0.508 0.414,-0.48 0.419,-0.445L0.42,-0.445L0.418,-0.57L0.418,-0.73L0.508,-0.73L0.508,-0L0.418,-0L0.418,-0.105L0.417,-0.105C0.412,-0.069 0.397,-0.041 0.37,-0.021C0.343,-0 0.309,0.01 0.268,0.01ZM0.298,-0.068C0.335,-0.068 0.365,-0.08 0.386,-0.103C0.407,-0.126 0.418,-0.159 0.418,-0.2L0.418,-0.35C0.418,-0.391 0.407,-0.424 0.386,-0.447C0.365,-0.47 0.335,-0.482 0.298,-0.482C0.26,-0.482 0.23,-0.472 0.209,-0.453C0.188,-0.433 0.177,-0.4 0.177,-0.355L0.177,-0.195C0.177,-0.15 0.188,-0.118 0.209,-0.098C0.23,-0.078 0.26,-0.068 0.298,-0.068Z" style="fill-rule:nonzero;"/>
            </g>
            <g transform="matrix(40.9602,0,0,41.2089,1648.61,132)">
                <path d="M0.268,0.01C0.213,0.01 0.169,-0.008 0.137,-0.045C0.103,-0.082 0.087,-0.131 0.087,-0.194L0.087,-0.355C0.087,-0.418 0.103,-0.468 0.136,-0.505C0.169,-0.542 0.213,-0.56 0.268,-0.56C0.309,-0.56 0.343,-0.55 0.371,-0.529C0.398,-0.508 0.414,-0.48 0.419,-0.445L0.42,-0.445L0.418,-0.57L0.418,-0.73L0.508,-0.73L0.508,-0L0.418,-0L0.418,-0.105L0.417,-0.105C0.412,-0.069 0.397,-0.041 0.37,-0.021C0.343,-0 0.309,0.01 0.268,0.01ZM0.298,-0.068C0.335,-0.068 0.365,-0.08 0.386,-0.103C0.407,-0.126 0.418,-0.159 0.418,-0.2L0.418,-0.35C0.418,-0.391 0.407,-0.424 0.386,-0.447C0.365,-0.47 0.335,-0.482 0.298,-0.482C0.26,-0.482 0.23,-0.472 0.209,-0.453C0.188,-0.433 0.177,-0.4 0.177,-0.355L0.177,-0.195C0.177,-0.15 0.188,-0.118 0.209,-0.098C0.23,-0.078 0.26,-0.068 0.298,-0.068Z" style="fill-rule:nonzero;"/>
            </g>
            <g transform="matrix(40.9602,0,0,41.2089,1673.19,132)">
                <path d="M0.38,-0C0.331,-0 0.293,-0.014 0.264,-0.043C0.235,-0.071 0.22,-0.108 0.22,-0.155L0.22,-0.648L0.03,-0.648L0.03,-0.73L0.31,-0.73L0.31,-0.155C0.31,-0.132 0.316,-0.115 0.329,-0.102C0.342,-0.089 0.359,-0.082 0.38,-0.082L0.55,-0.082L0.55,-0L0.38,-0Z" style="fill-rule:nonzero;"/>
            </g>
            <g transform="matrix(40.9602,0,0,41.2089,1697.76,132)">
                <path d="M0.3,0.01C0.235,0.01 0.183,-0.01 0.144,-0.049C0.104,-0.088 0.084,-0.141 0.084,-0.21L0.084,-0.34C0.084,-0.409 0.104,-0.463 0.144,-0.502C0.183,-0.541 0.235,-0.56 0.3,-0.56C0.343,-0.56 0.381,-0.551 0.414,-0.534C0.446,-0.517 0.471,-0.492 0.489,-0.461C0.507,-0.43 0.516,-0.393 0.516,-0.35L0.516,-0.252L0.172,-0.252L0.172,-0.2C0.172,-0.159 0.184,-0.127 0.207,-0.104C0.23,-0.08 0.261,-0.068 0.3,-0.068C0.333,-0.068 0.361,-0.075 0.383,-0.088C0.404,-0.1 0.417,-0.118 0.422,-0.14L0.512,-0.14C0.506,-0.094 0.484,-0.058 0.445,-0.031C0.406,-0.003 0.358,0.01 0.3,0.01ZM0.172,-0.322L0.428,-0.322L0.428,-0.35C0.428,-0.393 0.417,-0.427 0.395,-0.451C0.372,-0.474 0.341,-0.486 0.3,-0.486C0.259,-0.486 0.228,-0.474 0.206,-0.451C0.183,-0.427 0.172,-0.393 0.172,-0.35L0.172,-0.322Z" style="fill-rule:nonzero;"/>
            </g>
        </g>
        <g transform="matrix(0.984473,0,0,10.5277,1471.17,-1953.02)">
            <rect x="1998" y="163" width="6" height="35"/>
            <rect x="1998" y="163" width="6" height="35"/>
        </g>
        <g transform="matrix(0.984473,0,0,10.646,1817.62,-1972.3)">
            <rect x="1998" y="163" width="6" height="35"/>
            <rect x="1998" y="163" width="6" height="35"/>
        </g>
        <g transform="matrix(0.984473,0,0,10.646,2166.67,-1971.68)">
            <rect x="1998" y="163" width="6" height="35"/>
            <rect x="1998" y="163" width="6" height="35"/>
        </g>
        <g transform="matrix(0.984473,0,0,10.6286,1124.58,-1968.85)">
            <rect x="1998" y="163" width="6" height="35"/>
            <rect x="1998" y="163" width="6" height="35"/>
        </g>
        <g transform="matrix(0.984473,0,0,10.75,947.221,-1992.25)">
            <rect x="1998" y="163" width="6" height="35"/>
            <rect x="1998" y="163" width="6" height="35"/>
        </g>
    </g>
</svg>
